<?xml version="1.0" encoding="UTF-8"?>
<svg width="180px" height="49px" viewBox="0 0 180 49" version="1.1" xmlns="http://www.w3.org/2000/svg" xmlns:xlink="http://www.w3.org/1999/xlink">
    <!-- Generator: Sketch 60 (88103) - https://sketch.com -->
    <title>Group</title>
    <desc>Created with Sketch.</desc>
    <defs>
        <linearGradient x1="50%" y1="0%" x2="50%" y2="100%" id="linearGradient-1">
            <stop stop-color="#FFE96D" offset="0%"></stop>
            <stop stop-color="#E1C218" offset="100%"></stop>
        </linearGradient>
        <linearGradient x1="50%" y1="0%" x2="50%" y2="100%" id="linearGradient-2">
            <stop stop-color="#FFE96D" offset="0%"></stop>
            <stop stop-color="#E1C218" offset="100%"></stop>
        </linearGradient>
    </defs>
    <g id="Logo" stroke="none" stroke-width="1" fill="none" fill-rule="evenodd">
        <g id="Group" transform="translate(0.000000, -9.000000)">
            <text id="Boltz" fill="url(#linearGradient-1)" font-family="BasierCircle-Bold, Basier Circle" font-size="56" font-weight="bold">
                <tspan x="46" y="53">Boltz</tspan>
            </text>
            <path d="M14.4583326,37.7755404 L1.67160355,37.7755404 C1.19400254,37.7755404 0.796001691,37.6288058 0.477601015,37.3354226 C0.159200338,37.0420366 0,36.6735173 0,36.2298646 C0,35.7575877 0.202618551,35.2710003 0.607855653,34.7701025 L0.607855653,34.7701025 L20.9493689,9.93274331 C21.3256596,9.44615726 21.7417511,9.15277432 22.1976433,9.05259448 C22.6535376,8.95241465 23.0623942,8.99534867 23.4242131,9.18139655 C23.7860319,9.36744444 24.0393053,9.67156105 24.1840331,10.0937464 C24.3287609,10.5159331 24.292579,11.0204094 24.0754873,11.6071752 L24.0754873,11.6071752 L17.4324865,29.2316544 L18.538,29.231 L18.5416674,29.2244596 L31.3283964,29.2244596 C31.8059975,29.2244596 32.2039983,29.3711942 32.522399,29.6645774 C32.8407997,29.9579634 33,30.3264827 33,30.7701354 C33,31.2424123 32.7973814,31.7289997 32.3921443,32.2298975 L32.3921443,32.2298975 L12.0506311,57.0672567 C11.6743404,57.5538427 11.2582489,57.8472257 10.8023567,57.9474055 C10.3464624,58.0475854 9.93760584,58.0046513 9.57578695,57.8186034 C9.21396806,57.6325556 8.9606947,57.328439 8.81596688,56.9062536 C8.67123905,56.4840669 8.70742101,55.9795906 8.92451274,55.3928248 L8.92451274,55.3928248 L15.5675135,37.7683456 L14.461,37.768 L14.4583326,37.7755404 Z" id="Shape" fill="url(#linearGradient-2)"></path>
        </g>
    </g>
</svg>